<svg id="Capa_1" data-name="Capa 1" xmlns="http://www.w3.org/2000/svg" viewBox="0 0 199 200"><path d="M131.72,150.88H66.53v-5h62.69V75.26H58.6v26.9h-5V72.76a2.5,2.5,0,0,1,2.5-2.5h75.62a2.49,2.49,0,0,1,2.5,2.5v75.62A2.49,2.49,0,0,1,131.72,150.88Z"/><path d="M56.1,168.49A2.51,2.51,0,0,1,54,167.26L16.14,103.43a2.5,2.5,0,0,1,2.15-3.77H93.91a2.5,2.5,0,0,1,2.15,3.77L58.25,167.26A2.51,2.51,0,0,1,56.1,168.49ZM22.67,104.66,56.1,161.08l33.43-56.42Z"/><path d="M131.8,113.05l-.15-5A35.31,35.31,0,1,0,95.21,72.76h-5a40.31,40.31,0,1,1,41.59,40.29Z"/></svg>