<svg id="Capa_1" data-name="Capa 1" xmlns="http://www.w3.org/2000/svg" viewBox="0 0 199 200"><path d="M82.65,114.46a2.5,2.5,0,0,1-2.35-1.65L54.66,42.35a2.5,2.5,0,0,1,1.49-3.21L101.5,22.63a2.51,2.51,0,0,1,3.21,1.5l5.1,14a2.49,2.49,0,0,1-1.49,3.2,2.51,2.51,0,0,1-3.21-1.49l-4.25-11.68L60.21,43,85,111.1a2.51,2.51,0,0,1-1.49,3.21A2.55,2.55,0,0,1,82.65,114.46Z"/><path d="M131.29,177.52a2.46,2.46,0,0,1-1.45-.47L95.19,152.43a2.62,2.62,0,0,1-.9-1.18l-3.54-9.73a2.5,2.5,0,0,1,4.7-1.71l3.27,9,31.06,22.08,9.6-36.87L121.9,86a2.5,2.5,0,0,1,4.7-1.71L144.34,133a2.41,2.41,0,0,1,.07,1.48L133.7,175.65a2.51,2.51,0,0,1-1.56,1.72A2.54,2.54,0,0,1,131.29,177.52Z"/><rect x="95.19" y="139.64" width="48.26" height="5" transform="translate(-41.41 49.37) rotate(-19.99)"/><rect x="98.07" y="37.08" width="9.3" height="5" transform="translate(-7.34 37.51) rotate(-20)"/><rect x="60.84" y="46.92" width="29.74" height="5" transform="matrix(0.94, -0.34, 0.34, 0.94, -12.33, 28.87)"/><rect x="64.24" y="56.25" width="29.74" height="5" transform="translate(-15.32 30.59) rotate(-19.99)"/><rect x="67.64" y="65.58" width="29.74" height="5" transform="translate(-18.31 32.32) rotate(-20)"/><rect x="112.78" y="155.67" width="24.74" height="5" transform="translate(-46.54 52.33) rotate(-20)"/><path d="M70.28,176a11.46,11.46,0,0,1-10.65-15.62C69.84,134.1,81.35,106.21,96.21,80a2.52,2.52,0,0,1,3.24-1l17.61,8.21a2.51,2.51,0,0,1,1.29,3.14c-10.52,28.24-24.49,55-38,79.66A11.47,11.47,0,0,1,70.28,176ZM99.43,84.49c-14.17,25.34-25.26,52.27-35.14,77.66a6.47,6.47,0,0,0,3.28,8.19,6.38,6.38,0,0,0,2.71.61A6.47,6.47,0,0,0,76,167.58c13.09-23.88,26.59-49.69,36.9-76.84Z"/><path d="M116.88,91.8l-1.75-4.68c.2-.08,20.14-7.72,16.66-20.42-3.3-12.05.37-29.22,2.37-36.92-16.11,3.46-27,10.16-32.34,19.94C94,64,100.63,80.12,100.69,80.28l-4.61,1.93c-.31-.75-7.59-18.55,1.36-34.89,6.55-12,19.93-19.78,39.79-23.23A2.51,2.51,0,0,1,140,27.3c-.07.23-7.32,23.87-3.43,38.08C141.3,82.48,117.88,91.43,116.88,91.8Z"/><path d="M109.08,70.56A2.5,2.5,0,0,1,106.77,69c-2.82-6.72-4-21.24,11.82-28.09a2.5,2.5,0,0,1,2,4.59c-15.26,6.62-9.45,21-9.2,21.57a2.51,2.51,0,0,1-2.3,3.47Z"/></svg>