<svg id="Capa_1" data-name="Capa 1" xmlns="http://www.w3.org/2000/svg" viewBox="0 0 199 200"><defs><style>.cls-1{fill:#fff;}</style></defs><path class="cls-1" d="M183.05,35H16a2.79,2.79,0,0,0-2.79,2.79V141.28A2.79,2.79,0,0,0,16,144.07h167.1a2.79,2.79,0,0,0,2.79-2.79V37.79A2.79,2.79,0,0,0,183.05,35Zm-2.78,103.5H18.73V40.57H180.27Z"/><path class="cls-1" d="M28.2,47.25A2.78,2.78,0,0,0,25.42,50v79a2.77,2.77,0,0,0,2.78,2.78H170.8a2.77,2.77,0,0,0,2.78-2.78V50a2.78,2.78,0,0,0-2.78-2.79H28.2ZM168,52.82v73.42H31V52.82H168Z"/><path class="cls-1" d="M142.57,153.81v6.73H56.43v-6.73h86.14M52,151.26v11.83A1.91,1.91,0,0,0,53.88,165h91.24a1.91,1.91,0,0,0,1.91-1.91V151.26a1.91,1.91,0,0,0-1.91-1.9H53.88A1.91,1.91,0,0,0,52,151.26Z"/></svg>