<?xml version="1.0" encoding="utf-8"?>
<!-- Generator: Adobe Illustrator 24.1.1, SVG Export Plug-In . SVG Version: 6.00 Build 0)  -->
<svg version="1.1" id="Capa_1" xmlns="http://www.w3.org/2000/svg" xmlns:xlink="http://www.w3.org/1999/xlink" x="0px" y="0px"
	 viewBox="0 0 323.04 109.28" style="enable-background:new 0 0 323.04 109.28;" xml:space="preserve">
<style type="text/css">
	.st0{fill:#FFFFFF;stroke:#FFFFFF;stroke-miterlimit:10;}
	.st1{fill:#FFFFFF;stroke:#FFFFFF;stroke-width:0.5;stroke-miterlimit:10;}
</style>
<g>
	<path class="st0" d="M59.22,68.94c2.21-4.51,3.33-9.34,3.33-14.36c0-18.06-14.69-32.75-32.75-32.75c-5.05,0-9.9,1.12-14.41,3.33
		l-0.18,0.09l0.39,0.8l0.18-0.09c4.39-2.15,9.1-3.25,14.02-3.25c17.57,0,31.86,14.29,31.86,31.86c0,4.78-1.05,9.39-3.11,13.7
		l-29.2-29.19v48.24l0.69-0.01c12.1-0.09,23.09-6.81,28.74-17.55l17.68,17.68h1.25L59.22,68.94z M58.13,69.11
		C52.7,79.65,42.04,86.27,30.25,86.43v-45.2L58.13,69.11z"/>
	<g>
		<path class="st0" d="M101.69,40.28h-1.1V69h1.1c9.04,0,14.48-5.32,14.48-14.36C116.17,44.16,108.17,40.28,101.69,40.28z
			 M101.76,67.95V41.33c6.07,0.03,13.25,3.6,13.25,13.39C115.01,63,110.03,67.92,101.76,67.95z"/>
		<path class="st0" d="M170.28,40.28h-1.1V69h1.1c9.04,0,14.48-5.32,14.48-14.36c0-4.54-1.36-8.11-3.84-10.56
			C178.43,41.6,174.82,40.28,170.28,40.28z M170.35,67.95V41.33c4.2,0.01,7.47,1.25,9.75,3.53c2.29,2.33,3.49,5.67,3.49,9.86
			C183.59,63,178.61,67.92,170.35,67.95z"/>
		<polygon class="st0" points="146.8,67.06 136.38,40.28 135.16,40.28 146.41,69 147.16,69 158.44,40.28 157.27,40.28 		"/>
		<rect x="162" y="40.28" class="st0" width="1.17" height="28.72"/>
		<polygon class="st0" points="242.93,67.45 225.56,40.28 224.03,40.28 224.03,69 225.05,69 225.05,41.44 242.66,69 243.95,69 
			243.95,40.28 242.93,40.28 		"/>
		<path class="st0" d="M256.74,57.9h13.33c-0.39,2.68-1.69,5.32-3.6,7.3c-1.87,1.94-4.38,3.26-7.22,3.26
			c-5.92,0-10.7-5.86-10.7-13.82c0-7.96,4.77-13.82,10.7-13.82c2.18,0,4.2,0.74,5.92,2.14c1.18,0.93,2.24,2.17,3.14,3.69h1.09
			c-2.03-4.27-6.05-6.87-10.16-6.87c-6.41,0-11.6,6.25-11.6,14.87c0,8.62,5.2,14.87,11.6,14.87c4.93,0,9.1-3.53,10.94-8.42
			c0.51-1.32,0.85-2.76,0.97-4.23h-14.42V57.9z"/>
		<polygon class="st0" points="274.18,69 287.51,69 287.51,67.95 275.34,67.95 275.34,55.07 287.51,55.07 287.51,54.02 
			275.34,54.02 275.34,41.33 287.51,41.33 287.51,40.28 274.18,40.28 		"/>
		<polygon class="st0" points="292.84,67.95 292.84,40.28 291.68,40.28 291.68,69 304.99,69 304.99,67.95 		"/>
		<polygon class="st0" points="128.14,40.28 116.85,69 118.03,69 128.49,42.22 138.92,69 140.13,69 128.88,40.28 		"/>
		<polygon class="st0" points="209.02,40.28 197.74,69 198.92,69 209.38,42.22 219.8,69 221.02,69 209.77,40.28 		"/>
	</g>
	<line class="st1" x1="89.16" y1="21.83" x2="89.16" y2="87.45"/>
</g>
</svg>
